<svg xmlns="http://www.w3.org/2000/svg" width="125" height="123" viewBox="0 0 125 123">
<path d="M 21 105 L 21 107 L 23 109 L 28 111 L 30 113 L 35 115 L 37 117 L 42 119 L 44 121 L 49 121 L 51 119 L 56 117 L 60 114 L 63 114 L 64 115 L 69 117 L 71 119 L 72 119 L 75 121 L 79 121 L 80 120 L 85 118 L 87 116 L 90 115 L 92 113 L 97 111 L 99 109 L 100 109 L 103 107 L 103 105 L 101 103 L 96 101 L 94 99 L 89 97 L 87 95 L 82 93 L 80 91 L 77 90 L 75 88 L 70 86 L 68 84 L 67 84 L 64 82 L 60 82 L 59 83 L 54 85 L 52 87 L 47 89 L 45 91 L 42 92 L 40 94 L 39 94 L 38 95 L 35 96 L 33 98 L 28 100 L 26 102 L 23 103 Z" fill="#E6A212" />
<path d="M 124 77 L 122 74 L 117 72 L 115 70 L 110 68 L 108 66 L 103 64 L 96 59 L 91 57 L 89 55 L 62 40 L 2 74 L 0 77 L 0 93 L 3 97 L 11 101 L 30 91 L 60 73 L 64 73 L 66 75 L 71 77 L 78 82 L 83 84 L 85 86 L 112 101 L 123 95 L 124 93 Z" fill="#E6A212" />
<path d="M 0 37 L 0 63 L 1 65 L 5 65 L 12 60 L 17 58 L 61 32 L 63 32 L 119 65 L 123 65 L 124 63 L 124 37 L 123 35 L 81 10 L 62 0 L 53 4 L 46 9 L 3 33 Z" fill="#E6A212" />
</svg>